<svg width="64" height="64" viewBox="0 0 64 64" fill="#FFA011" xmlns="http://www.w3.org/2000/svg">
<path d="M-0.0600586 -0.16V63.84H63.9399V-0.16H-0.0600586ZM61.9399 61.84H1.93994V1.84H61.9399V61.84Z"/>
<path d="M32 56C45.25 56 56 45.25 56 32C56 18.75 45.25 8 32 8C18.75 8 8 18.75 8 32C8 45.25 18.75 56 32 56ZM32 22C40.84 22 48 29.16 48 38C48 46.84 40.84 54 32 54C23.16 54 16 46.84 16 38C16 29.16 23.16 22 32 22Z"/>
<path d="M32 54C35.866 54 39 50.866 39 47C39 43.134 35.866 40 32 40C28.134 40 25 43.134 25 47C25 50.866 28.134 54 32 54Z"/>
</svg>
