<svg width="64" height="64" viewBox="0 0 64 64" fill="#41B84D" xmlns="http://www.w3.org/2000/svg">
<path d="M46.72 12.92C44.96 11.54 43.0099 10.41 40.9399 9.57001L31.95 31.83L46.72 12.92Z" />
<path d="M31.9401 31.84L50.8401 46.6C52.2201 44.84 53.3401 42.9 54.1801 40.82L31.95 31.83L55.6901 35.16C55.8401 34.07 55.9201 32.96 55.9201 31.83C55.9201 30.7 55.8401 29.59 55.6901 28.5L31.9601 31.83L54.1601 22.85C53.3201 20.78 52.1901 18.84 50.8201 17.08L31.9301 31.84V31.85L31.9401 31.84Z"/>
<path d="M35.28 8.07C34.18 7.92 33.06 7.84 31.95 7.84C30.82 7.84 29.71 7.93 28.62 8.07L31.95 31.83L35.28 8.07Z" />
<path d="M31.91 31.83H31.92L9.69995 40.82C10.55 42.9 11.68 44.85 13.04 46.59L31.93 31.83L17.16 50.74C18.9 52.11 20.84 53.24 22.94 54.09L31.9301 31.84L28.6 55.59C29.69 55.74 30.8 55.82 31.93 55.82C33.06 55.82 34.1699 55.74 35.2599 55.59L31.93 31.86L40.91 54.07C42.98 53.23 44.92 52.11 46.68 50.73L31.9301 31.84L22.94 9.60001C20.86 10.45 18.91 11.58 17.17 12.94L31.9301 31.84H31.9401L31.92 31.84L13.03 17.07C11.65 18.83 10.52 20.78 9.67995 22.85H9.68995L31.8899 31.83L8.17995 28.5C8.02995 29.59 7.94995 30.7 7.94995 31.83C7.94995 32.96 8.02995 34.07 8.17995 35.16L31.91 31.83Z"/>
<path d="M13.04 46.61V46.6L13.03 46.61H13.04Z" />
<path d="M17.17 12.94L17.18 12.94L17.17 12.93L17.17 12.94Z" />
<path d="M-0.0600586 -0.160004V63.84H63.9399V-0.160004H-0.0600586ZM61.9399 61.84H1.93994V1.84H61.9399V61.84Z" />
</svg>
