<svg width="64" height="64" viewBox="0 0 64 64" fill="#21BCFF" xmlns="http://www.w3.org/2000/svg">
<path d="M-0.0600586 -0.160004V63.84H63.9399V-0.160004H-0.0600586ZM61.9399 61.84H1.93994V1.84H61.9399V61.84Z"/>
<path d="M8.16992 35.79L9.46992 40.64L23.5899 36.86L13.2499 47.2L16.7999 50.75L27.3599 40.19L23.5099 54.57L28.0599 55.79L31.9199 41.4L35.7799 55.83L40.6299 54.53L36.8499 40.41L47.1899 50.75L50.7399 47.2L40.3999 36.86L54.5199 40.64L55.8199 35.79L41.6899 32.01L55.8099 28.22L54.5099 23.37L40.3899 27.15L50.7299 16.81L47.1799 13.26L36.8399 23.6L40.6199 9.47999L35.7699 8.17999L31.9899 22.3L28.2099 8.17999L23.3599 9.47999L27.1399 23.6L16.7999 13.26L13.2499 16.81L23.5899 27.15L9.46992 23.37L8.16992 28.22L22.2999 32L8.17992 35.79H8.16992ZM27.0499 27.05C29.7799 24.32 34.2199 24.32 36.9499 27.05C39.6799 29.78 39.6799 34.22 36.9499 36.95C34.2199 39.68 29.7799 39.68 27.0499 36.95C24.3199 34.22 24.3199 29.78 27.0499 27.05Z"/>
</svg>
